<?xml version="1.0" encoding="utf-8"?>
<!-- Generator: Adobe Illustrator 26.4.1, SVG Export Plug-In . SVG Version: 6.00 Build 0)  -->
<svg version="1.1" id="Layer_1" xmlns="http://www.w3.org/2000/svg" xmlns:xlink="http://www.w3.org/1999/xlink" x="0px" y="0px"
	 viewBox="0 0 2078.4 467.5" style="enable-background:new 0 0 2078.4 467.5;" xml:space="preserve">
<style type="text/css">
	.st0{fill:#092905;}
	.st1{fill:#00369B;}
	.st2{fill:#CF4709;}
	.st3{fill:#385469;}
	.st4{font-family:'MarkerFelt-Thin';}
	.st5{font-size:210px;}
	.st6{letter-spacing:4;}
	.st7{letter-spacing:10;}
	.st8{letter-spacing:6;}
	.st9{letter-spacing:8;}
</style>
<g>
	<g>
		<path class="st0" d="M193.7,330.4c0,0,23.9-20.8,109.5-10.2l12-13.4c0,0-75-10.9-126.7,16.5c0,0,28.3-27.7,114.8-23.1l9.7-10.2
			c0,0-79.3-2.1-120.5,24.5c0.1-0.1,0.2-0.1,0.2-0.2c4.3-4.1,5.7-17.1,6.2-25.9c0.5-8.9,0.1-18.5-5.9-25.7
			c-12.3-14.9-46.5-21.5-45.8-48.8c0.6-24.4-11.6-23.1-11.6-23.1c8.9,1,5.9,20.7,7.6,34.7c1.2,10,12.9,22.9,12.9,22.9l-15.5-2.2
			c-6.3-0.9-12.8-1.2-19.2-1c-23,0.5-18.9-19.4-18.7-20.1c-0.4,0.7-12.5,22.2,17.7,24.8c30.8,2.7,51.9,6.9,59.8,27.3
			c7.9,20.4-14.3,49.9-14.3,49.9l0.2,0.1h-2.4c0,0-24.8-43.5-127.7-46.3l8.1,9.5c0,0,64.2-3.5,112.2,32.5
			c-7.9-5.7-49.1-32.4-123-26.8l8.6,14c0,0,83.1-1.9,111.4,18.2c0,0-68.1-26.9-120-5.8l19.4,31.1c0,0,45.7-28.5,117.3,4.3
			c0,0,76.8-25.3,122.7,6.3l19.8-30C312.3,334.2,266.2,308.5,193.7,330.4L193.7,330.4z M157.2,323.6c-0.2-0.1-0.3-0.3-0.5-0.4
			C156.9,323.4,157.1,323.5,157.2,323.6c0.2,0.2,0.3,0.3,0.4,0.3C157.4,323.8,157.3,323.7,157.2,323.6z"/>
		<circle class="st0" cx="180.9" cy="217.4" r="19.6"/>
		<path class="st1" d="M200.5,170.5l-8,8.2c0,0-3.2-22.1,19.3-29.7c0,0,10.4,20.5-14.2,33.5C197.6,182.5,204.2,172.5,200.5,170.5
			L200.5,170.5z"/>
		<path class="st2" d="M181.8,154.5l-3.8,10.8c0,0-12.1-18.8,5.1-35c0,0,18.1,14.3,1.1,36.4C184.2,166.6,186,154.8,181.8,154.5
			L181.8,154.5z"/>
		<path class="st2" d="M201.9,140.1l-5.8,4.7c0,0-0.4-14.5,14.6-17.8c0,0,5.2,14-11.6,20.6C199.1,147.6,204.1,141.6,201.9,140.1
			L201.9,140.1z"/>
		<path class="st1" d="M222.2,168.5l-7,2.5c0,0,4.6-13.8,19.9-11.7c0,0,0.1,15-18,15.3C217,174.6,223.7,170.7,222.2,168.5
			L222.2,168.5z"/>
		<path class="st2" d="M162,171.2l3.4,10.9c0,0-20.9-7.9-16.8-31.2c0,0,23,0.8,22.5,28.6C171.1,179.6,165.5,169,162,171.2z"/>
		<path class="st2" d="M172.2,109.2l-6.6,9.4c0,0-6.6-21.3,14.4-32.3c0,0,13.5,18.7-8.8,35.3C171.2,121.5,176.2,110.6,172.2,109.2
			L172.2,109.2z"/>
		<path class="st2" d="M220.1,121.1l-4.9,10.4c0,0-10.2-19.9,8.6-34.3c0,0,16.5,16-2.6,36.3C221.3,133.4,224.3,121.8,220.1,121.1z"
			/>
		<path class="st2" d="M227,145.4l-9.8,6c0,0,2.4-22.2,26-24c0,0,5.1,22.5-22,29C221.3,156.3,230.1,148.3,227,145.4L227,145.4z"/>
		<path class="st1" d="M196.3,109.1l-1.2,10.3c0,0-14.4-14.1-2.6-31.8c0,0,18.8,8.9,8.3,31.8C200.8,119.3,200,108.5,196.3,109.1z"/>
		<path class="st1" d="M148.4,118.7l-1.2,10.3c0,0-14.4-14.1-2.6-31.8c0,0,18.8,8.9,8.3,31.8C152.9,128.9,152.1,118.1,148.4,118.7
			L148.4,118.7z"/>
		<path class="st1" d="M135.8,143.2l3.3,9.8c0,0-19.1-6.5-15.9-27.7c0,0,20.8,0.1,21.1,25.2C144.3,150.5,139,141,135.8,143.2z"/>
		<path class="st1" d="M108.2,137.5l3.3,9.8c0,0-19.1-6.5-15.9-27.7c0,0,20.8,0.1,21.1,25.2C116.6,144.7,111.3,135.3,108.2,137.5z"
			/>
		<path class="st1" d="M110,165.3l8.2,6.3c0,0-19.5,5.1-28.6-14.2c0,0,17.3-11.4,31.5,9.3C121,166.7,111.4,161.8,110,165.3
			L110,165.3z"/>
		<path class="st2" d="M80.1,165.8l6.8,7.8c0,0-20.1,1.3-25.3-19.4c0,0,19.2-7.9,29.1,15.2C90.7,169.3,82.2,162.6,80.1,165.8
			L80.1,165.8z"/>
		<path class="st1" d="M79.2,189.8l10.3,1.2c0,0-14.1,14.4-31.8,2.5c0,0,9-18.7,31.8-8.2C89.4,185.3,78.6,186.1,79.2,189.8
			L79.2,189.8z"/>
		<path class="st1" d="M121.5,211.8l9.3-4.4c0,0-4.4,19.7-25.7,18.9c0,0-2.2-20.6,22.7-23.7C127.8,202.6,119,208.9,121.5,211.8z"/>
		<path class="st1" d="M94,207l10.3,0.2c0,0-12.6,15.8-31.4,5.7c0,0,7-19.5,30.8-11.4C103.7,201.5,93,203.3,94,207L94,207z"/>
		<path class="st1" d="M70.5,228.7l9.7,3.5c0,0-17,10.8-31.6-4.9c0,0,13-16.2,32.8-0.7C81.4,226.6,70.8,224.9,70.5,228.7z"/>
		<path class="st2" d="M88.5,243.1l7.9-0.6c0,0-8.5,12.8-23.5,6.5c0,0,4-15.4,22.6-10.8C95.5,238.3,87.5,240.4,88.5,243.1
			L88.5,243.1z"/>
		<path class="st1" d="M136.4,168.1l4.4,5.9c0,0-14.3-0.2-16.8-15.1c0,0,14-4.5,19.7,12.3C143.7,171.2,138.1,166,136.4,168.1
			L136.4,168.1z"/>
		<path class="st1" d="M99.8,257.2l5.5-1.7c0,0-4,10.5-15.7,8.4c0,0,0.4-11.6,14.4-11.3C104.1,252.6,98.7,255.4,99.8,257.2
			L99.8,257.2z"/>
		<path class="st1" d="M122.3,234.7l4.3,3.8c0,0-11,2.2-15.4-8.9c0,0,10-5.8,17.2,6.2C128.4,235.9,123.2,232.8,122.3,234.7
			L122.3,234.7z"/>
		<path class="st2" d="M119.6,259.1l-4.6-3.4c0,0,10.8-3.1,16.1,7.5c0,0-9.5,6.6-17.6-4.7C113.4,258.5,118.8,261.1,119.6,259.1z"/>
		<path class="st1" d="M270.7,249.6l-7.1-2.2c0,0,5.1,13.5,20.2,10.8c0,0-0.5-14.9-18.5-14.6C265.3,243.7,272.1,247.3,270.7,249.6
			L270.7,249.6z"/>
		<path class="st1" d="M256.5,260.7l-1.9-5.4c0,0,10.6,3.6,8.9,15.4c0,0-11.6,0-11.8-14C251.8,256.6,254.8,261.9,256.5,260.7
			L256.5,260.7z"/>
		<path class="st2" d="M229.6,259.6l-4.6-3.4c0,0,10.8-3.1,16.1,7.5c0,0-9.5,6.6-17.6-4.7C223.4,259,228.8,261.6,229.6,259.6z"/>
		<path class="st1" d="M176.1,128.2l-3.4,3c0,0-0.6-8.9,8.5-11.3c0,0,3.6,8.5-6.6,12.9C174.6,132.9,177.5,129.1,176.1,128.2
			L176.1,128.2z"/>
		<path class="st1" d="M188.8,127.2l0.6,4.5c0,0-7.7-4.4-4.7-13.3c0,0,9,1.7,7.1,12.6C191.8,131.1,190.3,126.6,188.8,127.2
			L188.8,127.2z"/>
		<path class="st2" d="M245.6,173.5l-11.4,0.3c0,0,13.1-18.1,34.5-7.9c0,0-6.8,22-33.5,14.1C235.2,180.1,246.9,177.6,245.6,173.5z"
			/>
		<path class="st1" d="M247.5,197l-11.4,0.3c0,0,13.1-18.1,34.5-7.9c0,0-6.8,22-33.5,14.1C237.1,203.6,248.8,201,247.5,197
			L247.5,197z"/>
		<path class="st1" d="M246.7,221.9l-8.2-8c0,0,22.1-3.2,29.7,19.3c0,0-20.5,10.4-33.5-14.2C234.7,219,244.7,225.6,246.7,221.9
			L246.7,221.9z"/>
		<path class="st2" d="M275.8,212.8l-9.4-6.5c0,0,21.3-6.8,32.5,14c0,0-18.5,13.7-35.4-8.4C263.5,212,274.5,216.8,275.8,212.8
			L275.8,212.8z"/>
		<path class="st1" d="M287.2,193.6l-11.3-2.1c0,0,16.7-14.9,35.4-0.4c0,0-11.3,20.1-35.8,6.7C275.6,197.9,287.6,197.8,287.2,193.6
			L287.2,193.6z"/>
		<path class="st1" d="M282,170.7l-9.2,4.3c0,0,4.3-19.4,25.3-18.6c0,0,2.2,20.3-22.2,23.4C275.8,179.7,284.4,173.5,282,170.7
			L282,170.7z"/>
		<path class="st1" d="M257.3,142.6l-8.2,5.9c0,0,0.6-19.8,21.4-23c0,0,5.9,19.6-17.6,27.1C252.9,152.6,260.2,144.9,257.3,142.6
			L257.3,142.6z"/>
		<path class="st2" d="M119.2,188.1l9,7.1c0,0-21.7,5.3-31.4-16.3c0,0,19.4-12.4,34.7,10.9C131.5,189.8,120.9,184.2,119.2,188.1
			L119.2,188.1z"/>
		<g>
			<path class="st0" d="M163,328.8l-2.9-3.2c-5.4-32,0.6-51,7.9-62.1c4.8,3.5,8.2,8.1,10.6,14.1C182.9,288.7,175.2,315,163,328.8
				L163,328.8z"/>
			<path class="st0" d="M254.9,249.1c-31.4-12.7-47.1,4.6-54.8,21.4c-0.2,0.5-0.5,1.1-0.8,1.6c-0.9-3.8-2.5-7.3-5.1-10.5
				c-3.3-4-8.1-7.4-13.3-10.7c1.8-1.1,2.9-1.5,2.9-1.5c25.7-9,40.7-51.1,40.7-51.1c2,15-13.9,43.9-13.9,43.9
				C243.8,230.8,254.6,248.7,254.9,249.1L254.9,249.1z"/>
		</g>
	</g>
	<text transform="matrix(1 0 0 1 400.58 332.17)" class="st3 st4 st5 st6">A</text>
	<text transform="matrix(1 0 0 1 535.19 332.17)" class="st3 st4 st5 st7">n</text>
	<text transform="matrix(1 0 0 1 649.42 332.17)" class="st3 st4 st5 st8">a</text>
	<text transform="matrix(1 0 0 1 753.16 332.17)" class="st3 st4 st5 st8">n</text>
	<text transform="matrix(1 0 0 1 862.77 332.17)" class="st3 st4 st5 st8">d</text>
	<text transform="matrix(1 0 0 1 960 332.17)" class="st3 st4 st5">a P</text>
	<text transform="matrix(1 0 0 1 1200.45 332.17)" class="st3 st4 st5 st6">a</text>
	<text transform="matrix(1 0 0 1 1302.08 332.17)" class="st3 st4 st5 st7">t</text>
	<text transform="matrix(1 0 0 1 1388.1799 332.17)" class="st3 st4 st5 st7">h</text>
	<text transform="matrix(1 0 0 1 1498.21 332.17)" class="st3 st4 st5 st8">a</text>
	<text transform="matrix(1 0 0 1 1600.8999 332.17)" class="st3 st4 st5 st6">s</text>
	<text transform="matrix(1 0 0 1 1683.64 332.17)" class="st3 st4 st5 st7">h</text>
	<text transform="matrix(1 0 0 1 1793.6699 332.17)" class="st3 st4 st5 st9">a</text>
	<text transform="matrix(1 0 0 1 1899.09 332.17)" class="st3 st4 st5 st9">l</text>
	<text transform="matrix(1 0 0 1 1949.7 332.17)" class="st3 st4 st5">a</text>
</g>
</svg>
