<?xml version="1.0" encoding="utf-8"?>
<!-- Generator: Adobe Illustrator 26.4.1, SVG Export Plug-In . SVG Version: 6.00 Build 0)  -->
<svg version="1.1" id="visual" xmlns="http://www.w3.org/2000/svg" xmlns:xlink="http://www.w3.org/1999/xlink" x="0px" y="0px"
	 viewBox="0 0 1920 110" style="enable-background:new 0 0 1920 110;" xml:space="preserve">
<style type="text/css">
	.st0{fill:#EFF5F6;}
</style>
<path class="st0" d="M0,99l10.3-3.2c10.4-3.1,31-9.5,51.7-14.3c20.7-4.8,41.3-8.2,62-7.2s41.3,6.4,62,7.4s41.3-2.4,62-0.9
	s41.3,7.9,62,11.7c20.7,3.8,41.3,5.2,62,3.3c20.7-1.8,41.3-6.8,61.8-8.6c20.5-1.9,40.9-0.5,61.4,0.1c20.5,0.7,41.1,0.7,61.8-2
	c20.7-2.6,41.3-8,62-7s41.3,8.4,62,12.5c20.7,4.2,41.3,5.2,62,4.9c20.7-0.4,41.3-2,62-5.9c20.7-3.8,41.3-9.8,62-11.1
	c20.7-1.4,41.3,2,62,5.1c20.7,3.2,41.3,6.2,62,4c20.7-2.1,41.3-9.5,62-12.8c20.7-3.3,41.3-2.7,62-1.3c20.7,1.3,41.3,3.3,62,6.8
	s41.3,8.5,62,11.5s41.3,4,62,3.5s41.3-2.5,62-6.8c20.7-4.4,41.3-11,61.8-12.5s40.9,2.1,61.4,6.6s41.1,9.9,61.8,8
	c20.7-1.8,41.3-10.8,62-12c20.7-1.1,41.3,5.5,62,8.7c20.7,3.2,41.3,2.8,62,2c20.7-0.8,41.3-2.2,62-2.3c20.7-0.2,41.3,0.8,62,0.8
	s41.3-1,51.7-1.5L1920,86V0h-10.3c-10.4,0-31,0-51.7,0s-41.3,0-62,0s-41.3,0-62,0s-41.3,0-62,0s-41.3,0-62,0s-41.3,0-62,0
	s-41.3,0-61.8,0s-40.9,0-61.4,0s-41.1,0-61.8,0s-41.3,0-62,0s-41.3,0-62,0s-41.3,0-62,0s-41.3,0-62,0s-41.3,0-62,0s-41.3,0-62,0
	s-41.3,0-62,0s-41.3,0-62,0s-41.3,0-62,0s-41.3,0-62,0s-41.3,0-62,0s-41.3,0-62,0s-41.3,0-62,0s-41.3,0-61.8,0s-40.9,0-61.4,0
	S392.7,0,372,0s-41.3,0-62,0s-41.3,0-62,0s-41.3,0-62,0s-41.3,0-62,0S82.7,0,62,0S20.7,0,10.3,0H0V99z"/>
</svg>
