<?xml version="1.0" encoding="utf-8"?>
<!-- Generator: Adobe Illustrator 26.4.1, SVG Export Plug-In . SVG Version: 6.00 Build 0)  -->
<svg version="1.1" id="Layer_1" xmlns="http://www.w3.org/2000/svg" xmlns:xlink="http://www.w3.org/1999/xlink" x="0px" y="0px"
	 viewBox="0 0 1920 132.6" style="enable-background:new 0 0 1920 132.6;" xml:space="preserve">
<style type="text/css">
	.st0{fill:#F0F5F5;}
</style>
<path class="st0" d="M0,23.7L10.6,27c10.7,3.2,32,9.8,53.3,14.7s42.6,8.5,63.9,7.4s42.6-6.6,63.9-7.6s42.6,2.5,63.9,0.9
	c21.3-1.5,42.6-8.1,63.9-12.1c21.3-3.9,42.6-5.4,63.9-3.4c21.3,1.9,42.6,7,63.7,8.9c21.1,2,42.2,0.5,63.3-0.1
	c21.1-0.7,42.4-0.7,63.7,2.1c21.3,2.7,42.6,8.2,63.9,7.2s42.6-8.7,63.9-12.9c21.3-4.3,42.6-5.4,63.9-5.1c21.3,0.4,42.6,2.1,63.9,6.1
	c21.3,3.9,42.6,10.1,63.9,11.4c21.3,1.4,42.6-2.1,63.9-5.3c21.3-3.3,42.6-6.4,63.9-4.1c21.3,2.2,42.6,9.8,63.9,13.2
	s42.6,2.8,63.9,1.3c21.3-1.3,42.6-3.4,63.9-7s42.6-8.8,63.9-11.9c21.3-3.1,42.6-4.1,63.9-3.6s42.6,2.6,63.9,7
	c21.3,4.5,42.6,11.3,63.7,12.9s42.2-2.2,63.3-6.8c21.1-4.6,42.4-10.2,63.7-8.2c21.3,1.9,42.6,11.1,63.9,12.4
	c21.3,1.1,42.6-5.7,63.9-9s42.6-2.9,63.9-2.1c21.3,0.8,42.6,2.3,63.9,2.4c21.3,0.2,68.9-0.8,68.9-0.8l-0.2,97.7H0V23.5V23.7z"/>
</svg>
